<svg xmlns="http://www.w3.org/2000/svg" fill="#000000" height="800px" width="800px" version="1.1" viewBox="0 0 512 512" enable-background="new 0 0 512 512">
  <g>
    <path d="m490.6,94.4h-109.5v-73c0-6.3-4.2-10.4-10.4-10.4h-229.4c-6.3,0-10.4,4.2-10.4,10.4v73h-109.5c-6.3,0-10.4,4.2-10.4,10.4v136.6c0,0.2 0,0.3 0,0.5 0,0.2 0,0.3 0,0.5v248.1c0,6.3 4.2,10.4 10.4,10.4h469.1c6.3,0 10.4-4.2 10.4-10.4v-248.1-137.6c0.1-6.2-4.1-10.4-10.3-10.4zm-338.9-62.5h208.5v62.6h-208.5v-62.6zm-118.8,83.4h448.3v115.7l-448.3,1v-116.7zm212.7,161.6v25h-31.3v-49h85.5v49h-33.4v-25h-20.8zm234.5,203.2h-448.2v-227.2h160.6v59.4c0,6.3 4.2,10.4 10.4,10.4h106.3c6.3,0 10.4-4.2 10.4-9.4v-60.5h160.6v227.3z"/>
  </g>
</svg>
